name processed_emg_signals						
nRows=155						
nColumns=7						
 						
endheader						
time	LGLTMED	LRF	LADDLONG	LST	LTA	LGM
0.45	0.025352726	0.022433398	0.040584415	0.05021657	0.294633396	0.048151288
0.451	0.02529995	0.022480258	0.040396914	0.04951196	0.293674389	0.048257493
0.452	0.025245776	0.022528684	0.040209531	0.048803174	0.292718031	0.048351732
0.453	0.025190187	0.022578636	0.04002235	0.048089831	0.29176598	0.048434259
0.454	0.025133168	0.022630073	0.039835459	0.047371539	0.290819816	0.048505333
0.455	0.025074706	0.022682949	0.03964895	0.046647895	0.289881039	0.048565219
0.456	0.025014796	0.022737218	0.039462917	0.045918485	0.288951069	0.048614183
0.457	0.024953434	0.022792833	0.039277456	0.045182886	0.288031243	0.048652495
0.458	0.024890622	0.022849743	0.039092667	0.044440668	0.287122814	0.048680425
0.459	0.024826365	0.022907897	0.038908653	0.043691394	0.286226951	0.048698248
0.46	0.024760674	0.022967241	0.038725519	0.042934626	0.285344737	0.048706236
0.461	0.024693564	0.02302772	0.038543373	0.042169921	0.284477168	0.048704662
0.462	0.024625053	0.023089278	0.038362324	0.041396837	0.283625157	0.0486938
0.463	0.024555164	0.023151857	0.038182484	0.040614932	0.282789526	0.048673922
0.464	0.024483926	0.023215397	0.038003967	0.039823768	0.281971016	0.048645298
0.465	0.024411371	0.023279837	0.037826889	0.039022911	0.281170279	0.048608195
0.466	0.024337534	0.023345117	0.037651366	0.038211933	0.280387881	0.048562881
0.467	0.024262458	0.023411173	0.037477518	0.037390416	0.279624306	0.048509617
0.468	0.024186187	0.023477942	0.037305462	0.036557951	0.278879952	0.048448664
0.469	0.02410877	0.023545358	0.03713532	0.035714142	0.278155135	0.048380277
0.47	0.02403026	0.023613358	0.036967212	0.034858607	0.277450091	0.048304709
0.471	0.023950714	0.023681874	0.03680126	0.03399098	0.276764973	0.048222207
0.472	0.023870193	0.023750841	0.036637582	0.033110912	0.276099858	0.048133015
0.473	0.023788762	0.023820192	0.036476302	0.032218076	0.275454745	0.048037372
0.474	0.023706487	0.02388986	0.036317538	0.031312165	0.274829558	0.047935511
0.475	0.023623441	0.023959777	0.036161409	0.030392897	0.274224148	0.047827662
0.476	0.023539697	0.024029877	0.036008035	0.029460015	0.273638295	0.047714048
0.477	0.023455333	0.024100092	0.035857531	0.028513291	0.273071712	0.047594888
0.478	0.023370429	0.024170355	0.035710012	0.027552525	0.272524042	0.047470395
0.479	0.023285067	0.024240599	0.035565591	0.026577549	0.271994866	0.047340777
0.48	0.023199334	0.024310759	0.035424379	0.025588229	0.271483704	0.047206236
0.481	0.023113315	0.024380769	0.035286484	0.024584465	0.270990014	0.047066969
0.482	0.023027101	0.024450563	0.035152011	0.023566195	0.270513201	0.046923168
0.483	0.022940782	0.024520078	0.035021061	0.022533396	0.270052614	0.046775017
0.484	0.022854451	0.024589251	0.034893734	0.021486084	0.26960755	0.046622698
0.485	0.022768203	0.024658018	0.034770125	0.020424319	0.269177259	0.046466385
0.486	0.022682131	0.024726319	0.034650323	0.019348204	0.268760945	0.046306248
0.487	0.022596332	0.024794094	0.034534416	0.018257888	0.26835777	0.046142452
0.488	0.022510903	0.024861285	0.034422486	0.017153567	0.267966853	0.045975155
0.489	0.02242594	0.024927834	0.03431461	0.016035485	0.267587278	0.045804512
0.49	0.022341541	0.024993686	0.034210861	0.014903938	0.267218095	0.045630671
0.491	0.022257802	0.025058787	0.034111306	0.013759271	0.266858321	0.045453775
0.492	0.02217482	0.025123086	0.034016008	0.012601884	0.266506945	0.045273965
0.493	0.022092691	0.02518653	0.033925021	0.011432231	0.266162929	0.045091375
0.494	0.02201151	0.025249073	0.033838398	0.010250821	0.265825213	0.044906133
0.495	0.02193137	0.025310668	0.033756183	0.009058219	0.265492715	0.044718365
0.496	0.021852366	0.02537127	0.033678415	0.00785505	0.265164336	0.044528192
0.497	0.021774587	0.025430837	0.033605126	0.006641997	0.264838961	0.044335728
0.498	0.021698124	0.025489329	0.033536341	0.005419802	0.264515461	0.044141088
0.499	0.021623063	0.025546708	0.033472082	0.004189267	0.2641927	0.043944377
0.5	0.021549489	0.025602938	0.03341236	0.00295126	0.263869532	0.043745699
0.501	0.021477485	0.025657986	0.033357183	0.001706705	0.263544804	0.043545155
0.502	0.021407131	0.02571182	0.03330655	0.000456595	0.263217363	0.04334284
0.503	0.021338504	0.025764412	0.033260454	0.000798018	0.262886053	0.043138846
0.504	0.021271676	0.025815736	0.033218881	0.002056016	0.262549722	0.042933262
0.505	0.02120672	0.025865768	0.033181812	0.003316217	0.262207218	0.042726171
0.506	0.0211437	0.025914486	0.033149219	0.004577373	0.261857398	0.042517657
0.507	0.021082682	0.02596187	0.033121068	0.005838174	0.261499125	0.042307795
0.508	0.021023723	0.026007905	0.033097318	0.007097242	0.261131272	0.042096662
0.509	0.020966879	0.026052577	0.033077922	0.008353137	0.260752725	0.041884329
0.51	0.020912201	0.026095872	0.033062827	0.009604351	0.260362382	0.041670863
0.511	0.020859736	0.026137782	0.033051972	0.010849315	0.259959157	0.041456332
0.512	0.020809525	0.0261783	0.03304529	0.012086393	0.259541979	0.041240797
0.513	0.020761606	0.026217421	0.033042708	0.013313887	0.259109798	0.041024318
0.514	0.020716012	0.026255143	0.033044147	0.014530034	0.258661582	0.040806953
0.515	0.02067277	0.026291464	0.033049522	0.015733011	0.258196321	0.040588755
0.516	0.020631904	0.026326389	0.033058743	0.01692093	0.257713026	0.040369778
0.517	0.02059343	0.02635992	0.033071712	0.018091845	0.257210733	0.04015007
0.518	0.020557362	0.026392065	0.033088327	0.01924375	0.2566885	0.039929679
0.519	0.020523708	0.026422832	0.033108482	0.020374577	0.256145413	0.039708651
0.52	0.020492468	0.026452232	0.033132065	0.021482206	0.255580583	0.039487027
0.521	0.02046364	0.026480278	0.033158957	0.022564456	0.254993147	0.03926485
0.522	0.020437215	0.026506983	0.033189037	0.023619095	0.25438227	0.039042158
0.523	0.020413179	0.026532365	0.033222181	0.024643836	0.253747146	0.038818987
0.524	0.020391513	0.026556441	0.033258257	0.025636342	0.253086996	0.038595374
0.525	0.020372191	0.026579232	0.033297132	0.026594227	0.252401069	0.038371353
0.526	0.020355185	0.026600759	0.03333867	0.027515055	0.251688647	0.038146954
0.527	0.020340457	0.026621046	0.033382729	0.028396349	0.250949035	0.037922208
0.528	0.020327967	0.026640116	0.033429168	0.029235587	0.250181573	0.037697144
0.529	0.020317668	0.026657996	0.03347784	0.030030206	0.249385627	0.037471791
0.53	0.020309508	0.026674713	0.033528597	0.030777605	0.248560592	0.037246173
0.531	0.020303431	0.026690295	0.03358129	0.031475149	0.247705895	0.037020317
0.532	0.020299374	0.026704773	0.033635768	0.032120168	0.246820988	0.036794246
0.533	0.02029727	0.026718177	0.033691877	0.032709964	0.245905357	0.036567983
0.534	0.020297047	0.026730538	0.033749465	0.033241812	0.244958511	0.036341551
0.535	0.020298628	0.026741888	0.033808377	0.033712961	0.243979993	0.03611497
0.536	0.02030193	0.026752262	0.033868459	0.034120641	0.242969371	0.035888261
0.537	0.020306867	0.026761694	0.033929556	0.034462064	0.241926241	0.035661443
0.538	0.020313347	0.026770217	0.033991514	0.034734427	0.24085023	0.035434537
0.539	0.020321276	0.026777866	0.03405418	0.034934919	0.239740989	0.03520756
0.54	0.020330554	0.026784679	0.034117401	0.035060719	0.238598198	0.034980531
0.541	0.020341076	0.026790689	0.034181025	0.035109004	0.237421567	0.034753468
0.542	0.020352734	0.026795934	0.034244903	0.03507695	0.236210829	0.034526389
0.543	0.020365419	0.02680045	0.034308887	0.03496174	0.234965747	0.034299312
0.544	0.020379014	0.026804274	0.034372831	0.034760563	0.233686109	0.034072255
0.545	0.020393401	0.026807441	0.034436591	0.034470621	0.232371732	0.033845234
0.546	0.02040846	0.026809988	0.034500027	0.034089132	0.231022459	0.03361827
0.547	0.020424066	0.026811952	0.034562999	0.033613334	0.229638159	0.033391379
0.548	0.020440091	0.026813369	0.034625373	0.033040492	0.228218729	0.033164582
0.549	0.020456408	0.026814275	0.034687017	0.032367898	0.226764094	0.032937896
0.55	0.020472885	0.026814705	0.034747803	0.031592878	0.225274204	0.032711343
0.551	0.020489387	0.026814695	0.034807606	0.030712797	0.223749037	0.032484943
0.552	0.020505781	0.02681428	0.034866305	0.029725063	0.222188599	0.032258717
0.553	0.020521931	0.026813493	0.034923785	0.028627128	0.220592925	0.032032688
0.554	0.020537698	0.026812369	0.034979933	0.0274165	0.218962075	0.031806879
0.555	0.020552944	0.026810942	0.035034641	0.026090739	0.217296141	0.031581314
0.556	0.020567532	0.026809243	0.035087807	0.02464747	0.215595242	0.03135602
0.557	0.02058132	0.026807305	0.035139333	0.023084381	0.213859527	0.031131023
0.558	0.020594172	0.026805159	0.035189126	0.021399231	0.212089175	0.030906351
0.559	0.020605947	0.026802835	0.035237097	0.019589855	0.210284398	0.030682034
0.56	0.020616509	0.026800365	0.035283165	0.017654167	0.208445437	0.030458104
0.561	0.020625719	0.026797776	0.035327253	0.015590167	0.206572565	0.030234593
0.562	0.020633442	0.026795097	0.035369289	0.013395941	0.204666092	0.030011536
0.563	0.020639544	0.026792355	0.035409208	0.011069672	0.202726358	0.029788969
0.564	0.020643893	0.026789578	0.03544695	0.008609641	0.20075374	0.02956693
0.565	0.020646358	0.02678679	0.035482461	0.006014231	0.198748651	0.02934546
0.566	0.020646812	0.026784018	0.035515694	0.003281935	0.196711542	0.029124601
0.567	0.020645131	0.026781284	0.035546606	0.000411356	0.194642901	0.028904397
0.568	0.020641194	0.026778613	0.035575161	0.002598783	0.192543255	0.028684894
0.569	0.020634883	0.026776027	0.035601332	0.005749642	0.190413173	0.028466141
0.57	0.020626084	0.026773547	0.035625094	0.009042251	0.188253266	0.028248189
0.571	0.020614689	0.026771194	0.03564643	0.012477513	0.186064186	0.028031091
0.572	0.020600591	0.026768988	0.03566533	0.016056195	0.183846632	0.027814904
0.573	0.020583693	0.026766949	0.03568179	0.019778927	0.181601345	0.027599684
0.574	0.020563899	0.026765095	0.035695811	0.023646196	0.179329115	0.027385494
0.575	0.020541121	0.026763443	0.035707402	0.027658343	0.177030779	0.027172397
0.576	0.020515277	0.026762012	0.035716576	0.031815559	0.174707224	0.026960458
0.577	0.020486289	0.026760817	0.035723355	0.036117883	0.172359386	0.026749747
0.578	0.020454089	0.026759874	0.035727764	0.040565194	0.169988255	0.026540336
0.579	0.020418614	0.0267592	0.035729835	0.045157213	0.167594869	0.026332299
0.58	0.020379809	0.026758807	0.035729607	0.049893498	0.165180325	0.026125713
0.581	0.020337627	0.026758712	0.035727124	0.05477344	0.162745772	0.02592066
0.582	0.020292028	0.026758927	0.035722433	0.059796259	0.160292416	0.025717221
0.583	0.02024298	0.026759467	0.03571559	0.064961005	0.15782152	0.025515485
0.584	0.020190462	0.026760344	0.035706654	0.070266554	0.155334405	0.02531554
0.585	0.020134461	0.026761572	0.03569569	0.075711605	0.152832452	0.025117478
0.586	0.020074971	0.026763163	0.035682767	0.081294677	0.150317102	0.024921397
0.587	0.020011997	0.026765129	0.03566796	0.087014111	0.147789856	0.024727393
0.588	0.019945556	0.026767484	0.035651346	0.092868066	0.145252279	0.024535571
0.589	0.019875671	0.026770239	0.035633008	0.098854515	0.142705997	0.024346034
0.59	0.019802378	0.026773407	0.035613033	0.104971251	0.140152699	0.024158891
0.591	0.019725723	0.026777001	0.035591512	0.111215878	0.137594139	0.023974253
0.592	0.019645763	0.026781033	0.035568537	0.117585817	0.135032134	0.023792236
0.593	0.019562564	0.026785516	0.035544208	0.124078302	0.132468569	0.023612958
0.594	0.019476206	0.026790463	0.035518623	0.130690382	0.129905389	0.023436539
0.595	0.01938678	0.026795888	0.035491886	0.137418919	0.127344607	0.023263105
0.596	0.019294386	0.026801805	0.035464104	0.144260591	0.124788301	0.023092782
0.597	0.01919914	0.026808227	0.035435383	0.151211891	0.122238613	0.022925701
0.598	0.019101166	0.026815169	0.035405836	0.158269131	0.11969775	0.022761996
0.599	0.019000604	0.026822648	0.035375574	0.165428438	0.117167981	0.022601804
0.6	0.018897603	0.026830679	0.035344712	0.172685762	0.114651642	0.022445264
0.601	0.018792327	0.026839279	0.035313365	0.180036875	0.112151128	0.022292519
0.602	0.018684952	0.026848465	0.03528165	0.187477371	0.109668897	0.022143715
0.603	0.018575666	0.026858257	0.035249685	0.195002674	0.107207466	0.021998999
0.604	0.01846467	0.026868673	0.035217589	0.202608037	0.104769413	0.021858524
